<?xml version="1.0" standalone="no"?>
<!DOCTYPE svg PUBLIC "-//W3C//DTD SVG 20010904//EN"
 "http://www.w3.org/TR/2001/REC-SVG-20010904/DTD/svg10.dtd">
<svg version="1.0" xmlns="http://www.w3.org/2000/svg"
 width="512.000000pt" height="512.000000pt" viewBox="0 0 512.000000 512.000000"
 preserveAspectRatio="xMidYMid meet">
<metadata>
Created by potrace 1.11, written by Peter Selinger 2001-2013
</metadata>
<g transform="translate(0.000000,512.000000) scale(0.100000,-0.100000)"
fill="#000000" stroke="none">
<path d="M845 5095 c-154 -28 -259 -70 -390 -156 -178 -116 -324 -307 -394
-516 -50 -150 -49 -105 -50 -1858 0 -1812 -2 -1743 66 -1915 115 -286 338
-497 627 -591 65 -21 86 -26 166 -39 72 -11 3308 -11 3380 0 223 36 403 125
555 275 134 131 224 284 273 463 l27 97 2 1675 c2 1716 3 1679 -31 1838 -30
140 -142 331 -265 451 -151 149 -322 237 -536 277 -102 19 -3327 18 -3430 -1z"/>
</g>
</svg>
